<svg width="28" height="26" viewBox="0 0 28 26" fill="none" xmlns="http://www.w3.org/2000/svg">
<g clip-path="url(#clip0_21_1233)">
<path d="M3.03125 3.25C1.63379 3.25 0.5 4.3418 0.5 5.6875C0.5 6.4543 0.874414 7.17539 1.5125 7.6375L12.9875 15.925C13.5887 16.3566 14.4113 16.3566 15.0125 15.925L26.4875 7.6375C27.1256 7.17539 27.5 6.4543 27.5 5.6875C27.5 4.3418 26.3662 3.25 24.9688 3.25H3.03125ZM0.5 8.9375V19.5C0.5 21.2926 2.01348 22.75 3.875 22.75H24.125C25.9865 22.75 27.5 21.2926 27.5 19.5V8.9375L16.025 17.225C14.8227 18.0934 13.1773 18.0934 11.975 17.225L0.5 8.9375Z" fill="black"/>
</g>
<defs>
<clipPath id="clip0_21_1233">
<rect width="27" height="26" fill="white" transform="translate(0.5)"/>
</clipPath>
</defs>
</svg>
