<svg width="23" height="22" viewBox="0 0 23 22" fill="none" xmlns="http://www.w3.org/2000/svg">
<g clip-path="url(#clip0_21_1227)">
<path d="M7.58555 1.05702C7.25469 0.257805 6.38242 -0.167586 5.54883 0.0601485L1.76758 1.0914C1.01992 1.29765 0.5 1.97655 0.5 2.74999C0.5 13.3805 9.11953 22 19.75 22C20.5234 22 21.2023 21.4801 21.4086 20.7324L22.4398 16.9512C22.6676 16.1176 22.2422 15.2453 21.443 14.9144L17.318 13.1957C16.6176 12.9035 15.8055 13.1055 15.3285 13.6941L13.5926 15.8125C10.5676 14.3816 8.11836 11.9324 6.6875 8.90741L8.80586 7.17577C9.39453 6.69452 9.59648 5.88671 9.3043 5.18632L7.58555 1.06132V1.05702Z" fill="black"/>
</g>
<defs>
<clipPath id="clip0_21_1227">
<rect width="22" height="22" fill="white" transform="translate(0.5)"/>
</clipPath>
</defs>
</svg>
